<?xml version="1.0" encoding="UTF-8" standalone="no"?>
<!DOCTYPE svg PUBLIC "-//W3C//DTD SVG 1.1//EN"
 "http://www.w3.org/Graphics/SVG/1.1/DTD/svg11.dtd">
<!-- Generated by graphviz version 14.1.5 (20260411.2331)
 -->
<!-- Title: ClaimsForgeV6 Pages: 1 -->
<svg width="1518pt" height="1208pt"
 viewBox="0.00 0.00 1518.00 1208.00" xmlns="http://www.w3.org/2000/svg" xmlns:xlink="http://www.w3.org/1999/xlink">
<g id="graph0" class="graph" transform="scale(1 1) rotate(0) translate(28.8 1179.48)">
<title>ClaimsForgeV6</title>
<polygon fill="#0a0a0f" stroke="none" points="-28.8,28.8 -28.8,-1179.48 1489.65,-1179.48 1489.65,28.8 -28.8,28.8"/>
<text xml:space="preserve" text-anchor="start" x="451.8" y="-1126.78" font-family="Helvetica,sans-Serif" font-weight="bold" font-size="22.00" fill="#e5e7eb">ClaimsForge v6 · Trust Layer for AI Claims Resolution</text>
<text xml:space="preserve" text-anchor="start" x="465.3" y="-1115.23" font-family="Helvetica,sans-Serif" font-size="11.00" fill="#94a3b8">Multi&#45;agent Gemini pipeline · AWS&#45;IAM&#45;style Supervisor · Stripe&#45;Radar Trust Score · MIT · http://45.32.154.255</text>
<g id="clust1" class="cluster">
<title>cluster_input</title>
<path fill="#0a0a0f" stroke="#334155" stroke-dasharray="5,2" d="M688.17,-923.64C688.17,-923.64 802.17,-923.64 802.17,-923.64 808.17,-923.64 814.17,-929.64 814.17,-935.64 814.17,-935.64 814.17,-1089.68 814.17,-1089.68 814.17,-1095.68 808.17,-1101.68 802.17,-1101.68 802.17,-1101.68 688.17,-1101.68 688.17,-1101.68 682.17,-1101.68 676.17,-1095.68 676.17,-1089.68 676.17,-1089.68 676.17,-935.64 676.17,-935.64 676.17,-929.64 682.17,-923.64 688.17,-923.64"/>
<text xml:space="preserve" text-anchor="start" x="694.92" y="-1088.68" font-family="Helvetica,sans-Serif" font-size="11.00" fill="#94a3b8">CUSTOMER INPUT</text>
</g>
<g id="clust2" class="cluster">
<title>cluster_agents</title>
<path fill="#11111a" stroke="#a78bfa" d="M423.18,-341.66C423.18,-341.66 1039.17,-341.66 1039.17,-341.66 1045.17,-341.66 1051.17,-347.66 1051.17,-353.66 1051.17,-353.66 1051.17,-881.89 1051.17,-881.89 1051.17,-887.89 1045.17,-893.89 1039.17,-893.89 1039.17,-893.89 423.17,-893.89 423.17,-893.89 417.17,-893.89 411.18,-887.89 411.18,-881.89 411.18,-881.89 411.18,-353.66 411.18,-353.66 411.18,-347.66 417.18,-341.66 423.18,-341.66"/>
<text xml:space="preserve" text-anchor="start" x="490.8" y="-877.59" font-family="Helvetica,sans-Serif" font-weight="bold" font-size="13.00" fill="#a78bfa">7 GEMINI 2.5 SPECIALIST AGENTS</text>
<text xml:space="preserve" text-anchor="start" x="712.05" y="-877.59" font-family="Helvetica,sans-Serif" font-size="14.00" fill="#e5e7eb"> &#160;&#160;</text>
<text xml:space="preserve" text-anchor="start" x="723.3" y="-877.59" font-family="Helvetica,sans-Serif" font-size="10.00" fill="#94a3b8">(async pipeline · structured output · GeminiError fallback)</text>
</g>
<g id="clust5" class="cluster">
<title>cluster_supervisor_detail</title>
<path fill="#1a0e0e" stroke="#f97316" d="M195.18,-48C195.18,-48 391.18,-48 391.18,-48 397.18,-48 403.18,-54 403.18,-60 403.18,-60 403.18,-447.06 403.18,-447.06 403.18,-453.06 397.18,-459.06 391.18,-459.06 391.18,-459.06 195.18,-459.06 195.18,-459.06 189.18,-459.06 183.18,-453.06 183.18,-447.06 183.18,-447.06 183.18,-60 183.18,-60 183.18,-54 189.18,-48 195.18,-48"/>
<text xml:space="preserve" text-anchor="start" x="194.18" y="-444.66" font-family="Helvetica,sans-Serif" font-weight="bold" font-size="12.00" fill="#f97316">Supervisor · AWS&#45;IAM&#45;style Layers</text>
</g>
<g id="clust6" class="cluster">
<title>cluster_trust</title>
<path fill="#1a1830" stroke="#a78bfa" d="M441.18,-158.52C441.18,-158.52 647.17,-158.52 647.17,-158.52 653.17,-158.52 659.17,-164.52 659.17,-170.52 659.17,-170.52 659.17,-280.79 659.17,-280.79 659.17,-286.79 653.17,-292.79 647.17,-292.79 647.17,-292.79 441.18,-292.79 441.18,-292.79 435.18,-292.79 429.18,-286.79 429.18,-280.79 429.18,-280.79 429.18,-170.52 429.18,-170.52 429.18,-164.52 435.18,-158.52 441.18,-158.52"/>
<text xml:space="preserve" text-anchor="start" x="455.67" y="-278.39" font-family="Helvetica,sans-Serif" font-weight="bold" font-size="12.00" fill="#c4b5fd">Trust Score · Stripe&#45;Radar style</text>
</g>
<g id="clust7" class="cluster">
<title>cluster_kb</title>
<path fill="#0f1f17" stroke="#10b981" d="M1071.17,-341.29C1071.17,-341.29 1392.17,-341.29 1392.17,-341.29 1398.17,-341.29 1404.17,-347.29 1404.17,-353.29 1404.17,-353.29 1404.17,-567.08 1404.17,-567.08 1404.17,-573.08 1398.17,-579.08 1392.17,-579.08 1392.17,-579.08 1071.17,-579.08 1071.17,-579.08 1065.17,-579.08 1059.17,-573.08 1059.17,-567.08 1059.17,-567.08 1059.17,-353.29 1059.17,-353.29 1059.17,-347.29 1065.17,-341.29 1071.17,-341.29"/>
<text xml:space="preserve" text-anchor="start" x="1120.3" y="-564.68" font-family="Helvetica,sans-Serif" font-weight="bold" font-size="12.00" fill="#34d399">Knowledge · Hybrid RAG · 1,329 entries</text>
</g>
<g id="clust8" class="cluster">
<title>cluster_output</title>
<path fill="#0a0a0f" stroke="#334155" stroke-dasharray="5,2" d="M432.18,-48C432.18,-48 887.17,-48 887.17,-48 893.17,-48 899.17,-54 899.17,-60 899.17,-60 899.17,-125.52 899.17,-125.52 899.17,-131.52 893.17,-137.52 887.17,-137.52 887.17,-137.52 432.18,-137.52 432.18,-137.52 426.18,-137.52 420.18,-131.52 420.18,-125.52 420.18,-125.52 420.18,-60 420.18,-60 420.18,-54 426.18,-48 432.18,-48"/>
<text xml:space="preserve" text-anchor="start" x="580.92" y="-124.52" font-family="Helvetica,sans-Serif" font-size="11.00" fill="#94a3b8">CUSTOMER&#45;FACING OUTPUT</text>
</g>
<!-- customer -->
<g id="node1" class="node">
<title>customer</title>
<path fill="#1e293b" stroke="#64748b" stroke-width="1.2" d="M774.72,-1073.68C774.72,-1073.68 715.62,-1073.68 715.62,-1073.68 709.62,-1073.68 703.62,-1067.68 703.62,-1061.68 703.62,-1061.68 703.62,-1047.16 703.62,-1047.16 703.62,-1041.16 709.62,-1035.16 715.62,-1035.16 715.62,-1035.16 774.72,-1035.16 774.72,-1035.16 780.72,-1035.16 786.72,-1041.16 786.72,-1047.16 786.72,-1047.16 786.72,-1061.68 786.72,-1061.68 786.72,-1067.68 780.72,-1073.68 774.72,-1073.68"/>
<text xml:space="preserve" text-anchor="middle" x="745.17" y="-1057.47" font-family="Helvetica,sans-Serif" font-size="11.00" fill="#e5e7eb">👤 Customer</text>
<text xml:space="preserve" text-anchor="middle" x="745.17" y="-1042.47" font-family="Helvetica,sans-Serif" font-size="11.00" fill="#e5e7eb">text + image</text>
</g>
<!-- upload -->
<g id="node2" class="node">
<title>upload</title>
<path fill="#1e293b" stroke="#64748b" stroke-width="1.2" d="M793.85,-994.16C793.85,-994.16 696.5,-994.16 696.5,-994.16 690.5,-994.16 684.5,-988.16 684.5,-982.16 684.5,-982.16 684.5,-943.64 684.5,-943.64 684.5,-937.64 690.5,-931.64 696.5,-931.64 696.5,-931.64 793.85,-931.64 793.85,-931.64 799.85,-931.64 805.85,-937.64 805.85,-943.64 805.85,-943.64 805.85,-982.16 805.85,-982.16 805.85,-988.16 799.85,-994.16 793.85,-994.16"/>
<text xml:space="preserve" text-anchor="middle" x="745.17" y="-977.95" font-family="Helvetica,sans-Serif" font-size="11.00" fill="#e5e7eb">📷 /api/upload&#45;image</text>
<text xml:space="preserve" text-anchor="middle" x="745.17" y="-962.95" font-family="Helvetica,sans-Serif" font-size="11.00" fill="#e5e7eb">• Pillow resize</text>
<text xml:space="preserve" text-anchor="middle" x="745.17" y="-950.95" font-family="Helvetica,sans-Serif" font-size="11.00" fill="#e5e7eb">• EXIF preserved</text>
<text xml:space="preserve" text-anchor="middle" x="745.17" y="-938.95" font-family="Helvetica,sans-Serif" font-size="11.00" fill="#e5e7eb">• pHash computed</text>
</g>
<!-- customer&#45;&gt;upload -->
<g id="edge1" class="edge">
<title>customer&#45;&gt;upload</title>
<path fill="none" stroke="#475569" stroke-width="1.2" stroke-dasharray="5,2" d="M745.17,-1034.87C745.17,-1025.66 745.17,-1014.16 745.17,-1003.11"/>
<polygon fill="#475569" stroke="#475569" stroke-width="1.2" points="747.63,-1003.22 745.18,-996.22 742.73,-1003.22 747.63,-1003.22"/>
</g>
<!-- intent -->
<g id="node3" class="node">
<title>intent</title>
<path fill="#1e1b3a" stroke="#a78bfa" stroke-width="1.2" d="M815.6,-862.89C815.6,-862.89 674.75,-862.89 674.75,-862.89 668.75,-862.89 662.75,-856.89 662.75,-850.89 662.75,-850.89 662.75,-824.37 662.75,-824.37 662.75,-818.37 668.75,-812.37 674.75,-812.37 674.75,-812.37 815.6,-812.37 815.6,-812.37 821.6,-812.37 827.6,-818.37 827.6,-824.37 827.6,-824.37 827.6,-850.89 827.6,-850.89 827.6,-856.89 821.6,-862.89 815.6,-862.89"/>
<text xml:space="preserve" text-anchor="middle" x="745.17" y="-846.68" font-family="Helvetica,sans-Serif" font-size="11.00" fill="#e5e7eb">🎯 IntentAgent</text>
<text xml:space="preserve" text-anchor="middle" x="745.17" y="-831.68" font-family="Helvetica,sans-Serif" font-size="11.00" fill="#e5e7eb">claim_with_image | text_only |</text>
<text xml:space="preserve" text-anchor="middle" x="745.17" y="-819.68" font-family="Helvetica,sans-Serif" font-size="11.00" fill="#e5e7eb">followup | clarify | inquiry</text>
</g>
<!-- upload&#45;&gt;intent -->
<g id="edge5" class="edge">
<title>upload&#45;&gt;intent</title>
<path fill="none" stroke="#475569" stroke-width="1.2" d="M745.17,-931.11C745.17,-913.09 745.17,-890.34 745.17,-871.91"/>
<polygon fill="#475569" stroke="#475569" stroke-width="1.2" points="747.63,-872.06 745.18,-865.06 742.73,-872.06 747.63,-872.06"/>
<text xml:space="preserve" text-anchor="middle" x="772.92" y="-903.09" font-family="Helvetica,sans-Serif" font-size="9.00" fill="#94a3b8">ClaimContext</text>
</g>
<!-- emotion -->
<g id="node4" class="node">
<title>emotion</title>
<path fill="#1e1b3a" stroke="#a78bfa" stroke-width="1.2" d="M625.6,-758.87C625.6,-758.87 430.75,-758.87 430.75,-758.87 424.75,-758.87 418.75,-752.87 418.75,-746.87 418.75,-746.87 418.75,-720.35 418.75,-720.35 418.75,-714.35 424.75,-708.35 430.75,-708.35 430.75,-708.35 625.6,-708.35 625.6,-708.35 631.6,-708.35 637.6,-714.35 637.6,-720.35 637.6,-720.35 637.6,-746.87 637.6,-746.87 637.6,-752.87 631.6,-758.87 625.6,-758.87"/>
<text xml:space="preserve" text-anchor="middle" x="528.17" y="-742.66" font-family="Helvetica,sans-Serif" font-size="11.00" fill="#e5e7eb">💗 EmotionAgent</text>
<text xml:space="preserve" text-anchor="middle" x="528.17" y="-727.66" font-family="Helvetica,sans-Serif" font-size="11.00" fill="#e5e7eb">score 0&#45;10 · LOW/MED/HIGH/CRITICAL</text>
<text xml:space="preserve" text-anchor="middle" x="528.17" y="-715.66" font-family="Helvetica,sans-Serif" font-size="11.00" fill="#e5e7eb">escalation_signals</text>
</g>
<!-- intent&#45;&gt;emotion -->
<!-- intent&#45;&gt;emotion -->
<g id="edge6" class="edge">
<title>intent&#45;&gt;emotion</title>
<path fill="none" stroke="#475569" stroke-width="1.2" d="M692.37,-811.8C661.01,-797.06 621.14,-778.31 588.53,-762.99"/>
<polygon fill="#475569" stroke="#475569" stroke-width="1.2" points="589.86,-760.9 582.49,-760.14 587.78,-765.34 589.86,-760.9"/>
<text xml:space="preserve" text-anchor="middle" x="669.17" y="-783.82" font-family="Helvetica,sans-Serif" font-size="9.00" fill="#94a3b8">∥ parallel</text>
</g>
<!-- needs -->
<g id="node5" class="node">
<title>needs</title>
<path fill="#1e1b3a" stroke="#a78bfa" stroke-width="1.2" d="M808.85,-758.87C808.85,-758.87 681.5,-758.87 681.5,-758.87 675.5,-758.87 669.5,-752.87 669.5,-746.87 669.5,-746.87 669.5,-720.35 669.5,-720.35 669.5,-714.35 675.5,-708.35 681.5,-708.35 681.5,-708.35 808.85,-708.35 808.85,-708.35 814.85,-708.35 820.85,-714.35 820.85,-720.35 820.85,-720.35 820.85,-746.87 820.85,-746.87 820.85,-752.87 814.85,-758.87 808.85,-758.87"/>
<text xml:space="preserve" text-anchor="middle" x="745.17" y="-742.66" font-family="Helvetica,sans-Serif" font-size="11.00" fill="#e5e7eb">🧭 NeedsAgent</text>
<text xml:space="preserve" text-anchor="middle" x="745.17" y="-727.66" font-family="Helvetica,sans-Serif" font-size="11.00" fill="#e5e7eb">latent_need · retention_risk</text>
<text xml:space="preserve" text-anchor="middle" x="745.17" y="-715.66" font-family="Helvetica,sans-Serif" font-size="11.00" fill="#e5e7eb">suggested_offer_bias</text>
</g>
<!-- intent&#45;&gt;needs -->
<!-- intent&#45;&gt;needs -->
<g id="edge7" class="edge">
<title>intent&#45;&gt;needs</title>
<path fill="none" stroke="#475569" stroke-width="1.2" d="M755.63,-811.93C757.33,-798.75 757.63,-782.33 756.52,-768.02"/>
<polygon fill="#475569" stroke="#475569" stroke-width="1.2" points="758.97,-767.95 755.83,-761.24 754.1,-768.45 758.97,-767.95"/>
</g>
<!-- damage -->
<g id="node6" class="node">
<title>damage</title>
<path fill="#1e1b3a" stroke="#a78bfa" stroke-width="1.2" d="M1031.35,-758.87C1031.35,-758.87 865,-758.87 865,-758.87 859,-758.87 853,-752.87 853,-746.87 853,-746.87 853,-720.35 853,-720.35 853,-714.35 859,-708.35 865,-708.35 865,-708.35 1031.35,-708.35 1031.35,-708.35 1037.35,-708.35 1043.35,-714.35 1043.35,-720.35 1043.35,-720.35 1043.35,-746.87 1043.35,-746.87 1043.35,-752.87 1037.35,-758.87 1031.35,-758.87"/>
<text xml:space="preserve" text-anchor="middle" x="948.17" y="-742.66" font-family="Helvetica,sans-Serif" font-size="11.00" fill="#e5e7eb">📸 DamageAgent · Vision</text>
<text xml:space="preserve" text-anchor="middle" x="948.17" y="-727.66" font-family="Helvetica,sans-Serif" font-size="11.00" fill="#e5e7eb">damage_type · severity 0&#45;10 ·</text>
<text xml:space="preserve" text-anchor="middle" x="948.17" y="-715.66" font-family="Helvetica,sans-Serif" font-size="11.00" fill="#e5e7eb">bounding_boxes · detected_subject</text>
</g>
<!-- intent&#45;&gt;damage -->
<!-- intent&#45;&gt;damage -->
<g id="edge8" class="edge">
<title>intent&#45;&gt;damage</title>
<path fill="none" stroke="#475569" stroke-width="1.2" d="M805.04,-811.8C836.01,-797.19 873.08,-778.63 901.86,-763.38"/>
<polygon fill="#475569" stroke="#475569" stroke-width="1.2" points="902.74,-765.68 907.76,-760.23 900.43,-761.36 902.74,-765.68"/>
</g>
<!-- compensation -->
<g id="node7" class="node">
<title>compensation</title>
<path fill="#1e1b3a" stroke="#a78bfa" stroke-width="1.2" d="M910.22,-658.6C910.22,-658.6 782.12,-658.6 782.12,-658.6 776.12,-658.6 770.12,-652.6 770.12,-646.6 770.12,-646.6 770.12,-620.08 770.12,-620.08 770.12,-614.08 776.12,-608.08 782.12,-608.08 782.12,-608.08 910.22,-608.08 910.22,-608.08 916.22,-608.08 922.22,-614.08 922.22,-620.08 922.22,-620.08 922.22,-646.6 922.22,-646.6 922.22,-652.6 916.22,-658.6 910.22,-658.6"/>
<text xml:space="preserve" text-anchor="middle" x="846.17" y="-642.39" font-family="Helvetica,sans-Serif" font-size="11.00" fill="#e5e7eb">💰 CompensationAgent</text>
<text xml:space="preserve" text-anchor="middle" x="846.17" y="-627.39" font-family="Helvetica,sans-Serif" font-size="11.00" fill="#e5e7eb">hybrid&#45;RAG · 26 policies</text>
<text xml:space="preserve" text-anchor="middle" x="846.17" y="-615.39" font-family="Helvetica,sans-Serif" font-size="11.00" fill="#e5e7eb">_enforce_amount_sandbox</text>
</g>
<!-- emotion&#45;&gt;compensation -->
<g id="edge9" class="edge">
<title>emotion&#45;&gt;compensation</title>
<path fill="none" stroke="#475569" stroke-width="1.2" d="M608.42,-707.81C655.11,-693.38 713.92,-675.21 761.37,-660.55"/>
<polygon fill="#475569" stroke="#475569" stroke-width="1.2" points="762.09,-662.89 768.06,-658.48 760.64,-658.21 762.09,-662.89"/>
<text xml:space="preserve" text-anchor="middle" x="709.83" y="-679.8" font-family="Helvetica,sans-Serif" font-size="9.00" fill="#94a3b8">merge</text>
</g>
<!-- needs&#45;&gt;compensation -->
<g id="edge10" class="edge">
<title>needs&#45;&gt;compensation</title>
<path fill="none" stroke="#475569" stroke-width="1.2" d="M770.66,-707.81C783.94,-694.89 800.3,-678.97 814.4,-665.26"/>
<polygon fill="#475569" stroke="#475569" stroke-width="1.2" points="816.09,-667.03 819.39,-660.4 812.67,-663.52 816.09,-667.03"/>
<text xml:space="preserve" text-anchor="middle" x="811.83" y="-679.8" font-family="Helvetica,sans-Serif" font-size="9.00" fill="#94a3b8">merge</text>
</g>
<!-- damage&#45;&gt;compensation -->
<g id="edge11" class="edge">
<title>damage&#45;&gt;compensation</title>
<path fill="none" stroke="#475569" stroke-width="1.2" d="M922.44,-707.81C908.91,-694.78 892.2,-678.69 877.88,-664.89"/>
<polygon fill="#475569" stroke="#475569" stroke-width="1.2" points="879.95,-663.48 873.21,-660.39 876.55,-667.01 879.95,-663.48"/>
<text xml:space="preserve" text-anchor="middle" x="913.36" y="-679.8" font-family="Helvetica,sans-Serif" font-size="9.00" fill="#94a3b8">merge</text>
</g>
<!-- supervisor -->
<g id="node8" class="node">
<title>supervisor</title>
<path fill="#5b1d1d" stroke="#f97316" stroke-width="2.2" d="M554.98,-541.57C554.98,-541.57 431.38,-541.57 431.38,-541.57 425.38,-541.57 419.38,-535.57 419.38,-529.57 419.38,-529.57 419.38,-517.57 419.38,-517.57 419.38,-511.57 425.38,-505.57 431.38,-505.57 431.38,-505.57 554.98,-505.57 554.98,-505.57 560.98,-505.57 566.98,-511.57 566.98,-517.57 566.98,-517.57 566.98,-529.57 566.98,-529.57 566.98,-535.57 560.98,-541.57 554.98,-541.57"/>
<text xml:space="preserve" text-anchor="start" x="441.43" y="-524.12" font-family="Helvetica,sans-Serif" font-weight="bold" font-size="11.00" fill="#e5e7eb">🛡 SupervisorAgent</text>
<text xml:space="preserve" text-anchor="start" x="430.18" y="-515.02" font-family="Helvetica,sans-Serif" font-size="9.00" fill="#e5e7eb">AWS&#45;IAM 3&#45;layer · pure Python</text>
</g>
<!-- compensation&#45;&gt;supervisor -->
<g id="edge12" class="edge">
<title>compensation&#45;&gt;supervisor</title>
<path fill="none" stroke="#475569" stroke-width="1.2" d="M769.58,-608.96C707.32,-589.95 620.32,-563.39 560.65,-545.17"/>
<polygon fill="#475569" stroke="#475569" stroke-width="1.2" points="561.57,-542.89 554.16,-543.19 560.14,-547.57 561.57,-542.89"/>
</g>
<!-- synth -->
<g id="node15" class="node">
<title>synth</title>
<path fill="#163326" stroke="#34d399" stroke-width="1.2" d="M1383.85,-550.33C1383.85,-550.33 1256.5,-550.33 1256.5,-550.33 1250.5,-550.33 1244.5,-544.33 1244.5,-538.33 1244.5,-538.33 1244.5,-508.81 1244.5,-508.81 1244.5,-502.81 1250.5,-496.81 1256.5,-496.81 1256.5,-496.81 1383.85,-496.81 1383.85,-496.81 1389.85,-496.81 1395.85,-502.81 1395.85,-508.81 1395.85,-508.81 1395.85,-538.33 1395.85,-538.33 1395.85,-544.33 1389.85,-550.33 1383.85,-550.33"/>
<text xml:space="preserve" text-anchor="start" x="1275.17" y="-535.12" font-family="Helvetica,sans-Serif" font-weight="bold" font-size="11.00" fill="#e5e7eb">case_synthesizer</text>
<text xml:space="preserve" text-anchor="start" x="1267.67" y="-526.02" font-family="Helvetica,sans-Serif" font-size="9.00" fill="#e5e7eb">every 5 resolved cases →</text>
<text xml:space="preserve" text-anchor="start" x="1255.3" y="-515.12" font-family="Helvetica,sans-Serif" font-size="11.00" fill="#e5e7eb">Gemini distills methodology</text>
<text xml:space="preserve" text-anchor="start" x="1289.8" y="-504.12" font-family="Helvetica,sans-Serif" font-size="11.00" fill="#e5e7eb">back into KB</text>
</g>
<!-- compensation&#45;&gt;synth -->
<g id="edge21" class="edge">
<title>compensation&#45;&gt;synth</title>
<path fill="none" stroke="#10b981" stroke-width="1.2" stroke-dasharray="5,2" d="M922.78,-630.64C1001.65,-626.85 1127.08,-615.07 1229.17,-579.08 1245.59,-573.29 1262.29,-564.35 1276.83,-555.37"/>
<polygon fill="#10b981" stroke="#10b981" stroke-width="1.2" points="1278.08,-557.47 1282.68,-551.65 1275.46,-553.33 1278.08,-557.47"/>
</g>
<!-- verifier -->
<g id="node9" class="node">
<title>verifier</title>
<path fill="#1e1b3a" stroke="#a78bfa" stroke-width="1.2" d="M611.22,-402.43C611.22,-402.43 477.12,-402.43 477.12,-402.43 471.12,-402.43 465.12,-396.43 465.12,-390.43 465.12,-390.43 465.12,-361.66 465.12,-361.66 465.12,-355.66 471.12,-349.66 477.12,-349.66 477.12,-349.66 611.22,-349.66 611.22,-349.66 617.22,-349.66 623.22,-355.66 623.22,-361.66 623.22,-361.66 623.22,-390.43 623.22,-390.43 623.22,-396.43 617.22,-402.43 611.22,-402.43"/>
<text xml:space="preserve" text-anchor="middle" x="544.17" y="-386.22" font-family="Helvetica,sans-Serif" font-size="11.00" fill="#e5e7eb">✅ VerifierAgent</text>
<text xml:space="preserve" text-anchor="middle" x="544.17" y="-371.22" font-family="Helvetica,sans-Serif" font-size="11.00" fill="#e5e7eb">tone review · soft revise loop</text>
<text xml:space="preserve" text-anchor="middle" x="544.17" y="-359.22" font-family="Helvetica,sans-Serif" font-size="11.00" fill="#e5e7eb">2nd&#45;revise → ESCALATE</text>
</g>
<!-- supervisor&#45;&gt;verifier -->
<g id="edge13" class="edge">
<title>supervisor&#45;&gt;verifier</title>
<path fill="none" stroke="#475569" stroke-width="1.2" d="M499.43,-504.73C507.56,-481.52 521.94,-440.48 532.21,-411.2"/>
<polygon fill="#475569" stroke="#475569" stroke-width="1.2" points="534.51,-412.03 534.52,-404.61 529.89,-410.41 534.51,-412.03"/>
<text xml:space="preserve" text-anchor="middle" x="548.23" y="-468.26" font-family="Helvetica,sans-Serif" font-size="9.00" fill="#94a3b8">if APPROVE/CAP</text>
</g>
<!-- deny_layer -->
<g id="node10" class="node">
<title>deny_layer</title>
<path fill="#3a0f0f" stroke="#ef4444" stroke-width="1.2" d="M383.6,-430.31C383.6,-430.31 206.75,-430.31 206.75,-430.31 200.75,-430.31 194.75,-424.31 194.75,-418.31 194.75,-418.31 194.75,-333.79 194.75,-333.79 194.75,-327.79 200.75,-321.79 206.75,-321.79 206.75,-321.79 383.6,-321.79 383.6,-321.79 389.6,-321.79 395.6,-327.79 395.6,-333.79 395.6,-333.79 395.6,-418.31 395.6,-418.31 395.6,-424.31 389.6,-430.31 383.6,-430.31"/>
<text xml:space="preserve" text-anchor="start" x="268.55" y="-415.1" font-family="Helvetica,sans-Serif" font-weight="bold" font-size="11.00" fill="#fecaca">L1 · DENY</text>
<text xml:space="preserve" text-anchor="start" x="238.18" y="-406" font-family="Helvetica,sans-Serif" font-size="9.00" fill="#fecaca">force_escalate · short&#45;circuit</text>
<text xml:space="preserve" text-anchor="start" x="214.55" y="-395.1" font-family="Helvetica,sans-Serif" font-size="11.00" fill="#fecaca">RULE&#45;FRAUD&#45;REPLAY (pHash)</text>
<text xml:space="preserve" text-anchor="start" x="211.93" y="-384.1" font-family="Helvetica,sans-Serif" font-size="11.00" fill="#fecaca">RULE&#45;MULTIMODAL&#45;MISMATCH</text>
<text xml:space="preserve" text-anchor="start" x="225.43" y="-373.1" font-family="Helvetica,sans-Serif" font-size="11.00" fill="#fecaca">RULE&#45;DUPLICATE&#45;ORDER</text>
<text xml:space="preserve" text-anchor="start" x="236.3" y="-362.1" font-family="Helvetica,sans-Serif" font-size="11.00" fill="#fecaca">RULE&#45;SESSION&#45;FREQ</text>
<text xml:space="preserve" text-anchor="start" x="205.55" y="-351.1" font-family="Helvetica,sans-Serif" font-size="11.00" fill="#fecaca">HR&#45;LIQUID&#45;ELECTRONICS (Tier&#45;2)</text>
<text xml:space="preserve" text-anchor="start" x="224.3" y="-340.1" font-family="Helvetica,sans-Serif" font-size="11.00" fill="#fecaca">HR&#45;LEGAL&#45;THREAT (Tier&#45;2)</text>
<text xml:space="preserve" text-anchor="start" x="243.05" y="-329.1" font-family="Helvetica,sans-Serif" font-size="11.00" fill="#fecaca">HR&#45;LUXURY (Tier&#45;2)</text>
</g>
<!-- supervisor&#45;&gt;deny_layer -->
<!-- supervisor&#45;&gt;deny_layer -->
<g id="edge17" class="edge">
<title>supervisor&#45;&gt;deny_layer</title>
<path fill="none" stroke="#f97316" stroke-width="1.6" d="M480.84,-504.74C465.31,-492.14 440.62,-474.76 419.18,-459.06 406.83,-450.02 393.79,-440.28 380.94,-430.79"/>
</g>
<!-- trust -->
<g id="node13" class="node">
<title>trust</title>
<path fill="#2a1f55" stroke="#c4b5fd" stroke-width="1.2" d="M639.35,-264.04C639.35,-264.04 449,-264.04 449,-264.04 443,-264.04 437,-258.04 437,-252.04 437,-252.04 437,-178.52 437,-178.52 437,-172.52 443,-166.52 449,-166.52 449,-166.52 639.35,-166.52 639.35,-166.52 645.35,-166.52 651.35,-172.52 651.35,-178.52 651.35,-178.52 651.35,-252.04 651.35,-252.04 651.35,-258.04 645.35,-264.04 639.35,-264.04"/>
<text xml:space="preserve" text-anchor="start" x="476.67" y="-248.83" font-family="Helvetica,sans-Serif" font-weight="bold" font-size="11.00" fill="#e5e7eb">compute_trust_score(ctx)</text>
<text xml:space="preserve" text-anchor="start" x="461.67" y="-239.73" font-family="Helvetica,sans-Serif" font-size="9.00" fill="#e5e7eb">0&#45;100 · 6 weighted factors · fail → cap 50</text>
<text xml:space="preserve" text-anchor="start" x="455.67" y="-228.83" font-family="Helvetica,sans-Serif" font-size="11.00" fill="#e5e7eb">• image_uniqueness (0.20) — pHash</text>
<text xml:space="preserve" text-anchor="start" x="447.8" y="-217.83" font-family="Helvetica,sans-Serif" font-size="11.00" fill="#e5e7eb">• image_provenance (0.15) — EXIF age</text>
<text xml:space="preserve" text-anchor="start" x="483.8" y="-206.83" font-family="Helvetica,sans-Serif" font-size="11.00" fill="#e5e7eb">• amount_sandbox (0.20)</text>
<text xml:space="preserve" text-anchor="start" x="481.17" y="-195.83" font-family="Helvetica,sans-Serif" font-size="11.00" fill="#e5e7eb">• history_coherence (0.20)</text>
<text xml:space="preserve" text-anchor="start" x="488.3" y="-184.83" font-family="Helvetica,sans-Serif" font-size="11.00" fill="#e5e7eb">• emotion_gating (0.10)</text>
<text xml:space="preserve" text-anchor="start" x="450.42" y="-173.83" font-family="Helvetica,sans-Serif" font-size="11.00" fill="#e5e7eb">• evidence_quality (0.15) — Vision conf</text>
</g>
<!-- verifier&#45;&gt;trust -->
<g id="edge18" class="edge">
<title>verifier&#45;&gt;trust</title>
<path fill="none" stroke="#a78bfa" stroke-width="1.6" d="M544.17,-349.19C544.17,-326.34 544.17,-292.42 544.17,-264.57"/>
</g>
<!-- exempt_layer -->
<g id="node11" class="node">
<title>exempt_layer</title>
<path fill="#3a2c0f" stroke="#f59e0b" stroke-width="1.2" d="M369.85,-236.54C369.85,-236.54 218.5,-236.54 218.5,-236.54 212.5,-236.54 206.5,-230.54 206.5,-224.54 206.5,-224.54 206.5,-206.02 206.5,-206.02 206.5,-200.02 212.5,-194.02 218.5,-194.02 218.5,-194.02 369.85,-194.02 369.85,-194.02 375.85,-194.02 381.85,-200.02 381.85,-206.02 381.85,-206.02 381.85,-224.54 381.85,-224.54 381.85,-230.54 375.85,-236.54 369.85,-236.54"/>
<text xml:space="preserve" text-anchor="start" x="260.43" y="-221.33" font-family="Helvetica,sans-Serif" font-weight="bold" font-size="11.00" fill="#fde68a">L2 · EXEMPT</text>
<text xml:space="preserve" text-anchor="start" x="247.68" y="-212.23" font-family="Helvetica,sans-Serif" font-size="9.00" fill="#fde68a">un&#45;escalate prior block</text>
<text xml:space="preserve" text-anchor="start" x="217.3" y="-201.33" font-family="Helvetica,sans-Serif" font-size="11.00" fill="#fde68a">RULE&#45;PERISHABLE&#45;EXEMPT</text>
</g>
<!-- deny_layer&#45;&gt;exempt_layer -->
<!-- handoff -->
<g id="node19" class="node">
<title>handoff</title>
<path fill="#1e293b" stroke="#f59e0b" stroke-width="1.2" d="M878.85,-109.52C878.85,-109.52 739.5,-109.52 739.5,-109.52 733.5,-109.52 727.5,-103.52 727.5,-97.52 727.5,-97.52 727.5,-68 727.5,-68 727.5,-62 733.5,-56 739.5,-56 739.5,-56 878.85,-56 878.85,-56 884.85,-56 890.85,-62 890.85,-68 890.85,-68 890.85,-97.52 890.85,-97.52 890.85,-103.52 884.85,-109.52 878.85,-109.52"/>
<text xml:space="preserve" text-anchor="start" x="762.67" y="-94.31" font-family="Helvetica,sans-Serif" font-weight="bold" font-size="11.00" fill="#e5e7eb">📋 Handoff Queue</text>
<text xml:space="preserve" text-anchor="start" x="738.3" y="-83.31" font-family="Helvetica,sans-Serif" font-size="11.00" fill="#e5e7eb">P0 (legal) / P1 (high&#45;emotion)</text>
<text xml:space="preserve" text-anchor="start" x="752.55" y="-72.31" font-family="Helvetica,sans-Serif" font-size="11.00" fill="#e5e7eb">P2 (normal) / P3 (audit)</text>
<text xml:space="preserve" text-anchor="start" x="751.42" y="-63.21" font-family="Helvetica,sans-Serif" font-size="9.00" fill="#e5e7eb">structured briefing → human</text>
</g>
<!-- deny_layer&#45;&gt;handoff -->
<g id="edge26" class="edge">
<title>deny_layer&#45;&gt;handoff</title>
<path fill="none" stroke="#ef4444" stroke-width="1.2" stroke-dasharray="5,2" d="M395.92,-324.04C398.35,-323.25 400.77,-322.49 403.18,-321.79 516.49,-288.74 566.04,-353.65 667.17,-292.79 734.51,-252.27 777.14,-166.1 796.67,-118.02"/>
<polygon fill="#ef4444" stroke="#ef4444" stroke-width="1.2" points="798.85,-119.17 799.16,-111.76 794.3,-117.36 798.85,-119.17"/>
<text xml:space="preserve" text-anchor="middle" x="794.19" y="-211.6" font-family="Helvetica,sans-Serif" font-size="9.00" fill="#94a3b8">if DENY</text>
</g>
<!-- cap_layer -->
<g id="node12" class="node">
<title>cap_layer</title>
<path fill="#0f3a2c" stroke="#10b981" stroke-width="1.2" d="M383.48,-109.52C383.48,-109.52 202.88,-109.52 202.88,-109.52 196.88,-109.52 190.88,-103.52 190.88,-97.52 190.88,-97.52 190.88,-68 190.88,-68 190.88,-62 196.88,-56 202.88,-56 202.88,-56 383.48,-56 383.48,-56 389.48,-56 395.48,-62 395.48,-68 395.48,-68 395.48,-97.52 395.48,-97.52 395.48,-103.52 389.48,-109.52 383.48,-109.52"/>
<text xml:space="preserve" text-anchor="start" x="270.3" y="-94.31" font-family="Helvetica,sans-Serif" font-weight="bold" font-size="11.00" fill="#a7f3d0">L3 · CAP</text>
<text xml:space="preserve" text-anchor="start" x="264.3" y="-85.21" font-family="Helvetica,sans-Serif" font-size="9.00" fill="#a7f3d0">clamp amount</text>
<text xml:space="preserve" text-anchor="start" x="201.68" y="-74.31" font-family="Helvetica,sans-Serif" font-size="11.00" fill="#a7f3d0">RULE&#45;MAX&#45;CASH&#45;PAYMENT ($500)</text>
<text xml:space="preserve" text-anchor="start" x="210.3" y="-63.31" font-family="Helvetica,sans-Serif" font-size="11.00" fill="#a7f3d0">RULE&#45;MAX&#45;PCT&#45;ORDER (100%)</text>
</g>
<!-- exempt_layer&#45;&gt;cap_layer -->
<!-- cap_layer&#45;&gt;trust -->
<g id="edge19" class="edge">
<title>cap_layer&#45;&gt;trust</title>
<path fill="none" stroke="#a78bfa" stroke-width="1.2" stroke-dasharray="1,5" d="M343.7,-110.03C374.57,-126.08 414.98,-147.1 451.42,-166.05"/>
</g>
<!-- sft -->
<g id="node16" class="node">
<title>sft</title>
<path fill="#163326" stroke="#34d399" stroke-width="1.2" d="M1200.85,-544.83C1200.85,-544.83 1079.5,-544.83 1079.5,-544.83 1073.5,-544.83 1067.5,-538.83 1067.5,-532.83 1067.5,-532.83 1067.5,-514.31 1067.5,-514.31 1067.5,-508.31 1073.5,-502.31 1079.5,-502.31 1079.5,-502.31 1200.85,-502.31 1200.85,-502.31 1206.85,-502.31 1212.85,-508.31 1212.85,-514.31 1212.85,-514.31 1212.85,-532.83 1212.85,-532.83 1212.85,-538.83 1206.85,-544.83 1200.85,-544.83"/>
<text xml:space="preserve" text-anchor="start" x="1110.55" y="-529.62" font-family="Helvetica,sans-Serif" font-weight="bold" font-size="11.00" fill="#e5e7eb">SFT Export</text>
<text xml:space="preserve" text-anchor="start" x="1084.3" y="-520.52" font-family="Helvetica,sans-Serif" font-size="9.00" fill="#e5e7eb">gold/normal/red_flag labels</text>
<text xml:space="preserve" text-anchor="start" x="1078.3" y="-509.62" font-family="Helvetica,sans-Serif" font-size="11.00" fill="#e5e7eb">vertex · openai · anthropic</text>
</g>
<!-- trust&#45;&gt;sft -->
<g id="edge23" class="edge">
<title>trust&#45;&gt;sft</title>
<path fill="none" stroke="#10b981" stroke-width="1.2" stroke-dasharray="5,2" d="M604.05,-264.45C620.96,-275.66 640,-286.23 659.17,-292.79 743.5,-321.65 987.15,-269.29 1059.17,-321.79 1114.87,-362.39 1132.34,-447.84 1137.76,-493.06"/>
<polygon fill="#10b981" stroke="#10b981" stroke-width="1.2" points="1135.33,-493.31 1138.53,-500 1140.2,-492.77 1135.33,-493.31"/>
</g>
<!-- reply -->
<g id="node17" class="node">
<title>reply</title>
<path fill="#1e293b" stroke="#64748b" stroke-width="1.2" d="M526.6,-105.02C526.6,-105.02 439.75,-105.02 439.75,-105.02 433.75,-105.02 427.75,-99.02 427.75,-93.02 427.75,-93.02 427.75,-72.5 427.75,-72.5 427.75,-66.5 433.75,-60.5 439.75,-60.5 439.75,-60.5 526.6,-60.5 526.6,-60.5 532.6,-60.5 538.6,-66.5 538.6,-72.5 538.6,-72.5 538.6,-93.02 538.6,-93.02 538.6,-99.02 532.6,-105.02 526.6,-105.02"/>
<text xml:space="preserve" text-anchor="start" x="453.93" y="-89.81" font-family="Helvetica,sans-Serif" font-weight="bold" font-size="11.00" fill="#e5e7eb">Final Reply</text>
<text xml:space="preserve" text-anchor="start" x="438.55" y="-78.81" font-family="Helvetica,sans-Serif" font-size="11.00" fill="#e5e7eb">offer · justification ·</text>
<text xml:space="preserve" text-anchor="start" x="445.3" y="-67.81" font-family="Helvetica,sans-Serif" font-size="11.00" fill="#e5e7eb">bilingual ZH/EN</text>
</g>
<!-- trust&#45;&gt;reply -->
<g id="edge24" class="edge">
<title>trust&#45;&gt;reply</title>
<path fill="none" stroke="#475569" stroke-width="1.2" d="M521.63,-166.05C513.37,-148.36 504.26,-128.88 496.99,-113.32"/>
<polygon fill="#475569" stroke="#475569" stroke-width="1.2" points="499.32,-112.52 494.14,-107.21 494.88,-114.59 499.32,-112.52"/>
</g>
<!-- trust_card -->
<g id="node18" class="node">
<title>trust_card</title>
<path fill="#1e293b" stroke="#64748b" stroke-width="1.2" d="M683.72,-105.02C683.72,-105.02 582.62,-105.02 582.62,-105.02 576.62,-105.02 570.62,-99.02 570.62,-93.02 570.62,-93.02 570.62,-72.5 570.62,-72.5 570.62,-66.5 576.62,-60.5 582.62,-60.5 582.62,-60.5 683.72,-60.5 683.72,-60.5 689.72,-60.5 695.72,-66.5 695.72,-72.5 695.72,-72.5 695.72,-93.02 695.72,-93.02 695.72,-99.02 689.72,-105.02 683.72,-105.02"/>
<text xml:space="preserve" text-anchor="start" x="581.42" y="-89.81" font-family="Helvetica,sans-Serif" font-weight="bold" font-size="11.00" fill="#e5e7eb">🛡 Trust Score Card</text>
<text xml:space="preserve" text-anchor="start" x="581.8" y="-78.81" font-family="Helvetica,sans-Serif" font-size="11.00" fill="#e5e7eb">0&#45;100 + 6 factor rows</text>
<text xml:space="preserve" text-anchor="start" x="593.8" y="-67.81" font-family="Helvetica,sans-Serif" font-size="11.00" fill="#e5e7eb">rule_id backlinks</text>
</g>
<!-- trust&#45;&gt;trust_card -->
<g id="edge25" class="edge">
<title>trust&#45;&gt;trust_card</title>
<path fill="none" stroke="#475569" stroke-width="1.2" d="M577.06,-166.05C589.34,-148.04 602.89,-128.17 613.6,-112.47"/>
<polygon fill="#475569" stroke="#475569" stroke-width="1.2" points="615.36,-114.23 617.28,-107.07 611.31,-111.47 615.36,-114.23"/>
</g>
<!-- kb -->
<g id="node14" class="node">
<title>kb</title>
<path fill="#163326" stroke="#34d399" stroke-width="1.2" d="M1384.35,-402.81C1384.35,-402.81 1212,-402.81 1212,-402.81 1206,-402.81 1200,-396.81 1200,-390.81 1200,-390.81 1200,-361.29 1200,-361.29 1200,-355.29 1206,-349.29 1212,-349.29 1212,-349.29 1384.35,-349.29 1384.35,-349.29 1390.35,-349.29 1396.35,-355.29 1396.35,-361.29 1396.35,-361.29 1396.35,-390.81 1396.35,-390.81 1396.35,-396.81 1390.35,-402.81 1384.35,-402.81"/>
<text xml:space="preserve" text-anchor="start" x="1256.55" y="-387.6" font-family="Helvetica,sans-Serif" font-weight="bold" font-size="11.00" fill="#e5e7eb">unified_kb.jsonl</text>
<text xml:space="preserve" text-anchor="start" x="1241.92" y="-376.6" font-family="Helvetica,sans-Serif" font-size="11.00" fill="#e5e7eb">26 policies · 1,204 SOP</text>
<text xml:space="preserve" text-anchor="start" x="1213.8" y="-365.6" font-family="Helvetica,sans-Serif" font-size="11.00" fill="#e5e7eb">47 auto&#45;synthesized methodologies</text>
<text xml:space="preserve" text-anchor="start" x="1210.8" y="-356.5" font-family="Helvetica,sans-Serif" font-size="9.00" fill="#e5e7eb">Gemini Embedding 001 · cosine + keyword</text>
</g>
<!-- kb&#45;&gt;compensation -->
<g id="edge20" class="edge">
<title>kb&#45;&gt;compensation</title>
<path fill="none" stroke="#10b981" stroke-width="1.2" stroke-dasharray="5,2" d="M1332.4,-403.33C1381.78,-444.32 1461.92,-524.43 1412.17,-579.08 1380.48,-613.9 1081.55,-626.4 931.39,-630.51"/>
<polygon fill="#10b981" stroke="#10b981" stroke-width="1.2" points="931.35,-628.06 924.42,-630.7 931.48,-632.96 931.35,-628.06"/>
<text xml:space="preserve" text-anchor="middle" x="1444.35" y="-519.89" font-family="Helvetica,sans-Serif" font-size="9.00" fill="#94a3b8">top_k=6</text>
</g>
<!-- synth&#45;&gt;kb -->
<g id="edge22" class="edge">
<title>synth&#45;&gt;kb</title>
<path fill="none" stroke="#10b981" stroke-width="1.2" stroke-dasharray="5,2" d="M1316.19,-496.22C1312.61,-472.52 1307.32,-437.56 1303.4,-411.63"/>
<polygon fill="#10b981" stroke="#10b981" stroke-width="1.2" points="1305.87,-411.56 1302.4,-405 1301.02,-412.29 1305.87,-411.56"/>
</g>
<!-- infra -->
<g id="node20" class="node">
<title>infra</title>
<path fill="#1e293b" stroke="#64748b" stroke-width="1.2" d="M574.35,-36C574.35,-36 12,-36 12,-36 6,-36 0,-30 0,-24 0,-24 0,-12 0,-12 0,-6 6,0 12,0 12,0 574.35,0 574.35,0 580.35,0 586.35,-6 586.35,-12 586.35,-12 586.35,-24 586.35,-24 586.35,-30 580.35,-36 574.35,-36"/>
<text xml:space="preserve" text-anchor="middle" x="293.18" y="-14.12" font-family="Helvetica,sans-Serif" font-size="10.00" fill="#e5e7eb">Vultr Cloud Compute · Frankfurt &#160;&#160;· &#160;&#160;nginx + systemd &#160;&#160;· &#160;&#160;FastAPI + Pydantic &#160;&#160;· &#160;&#160;SSE streaming &#160;&#160;· &#160;&#160;slowapi 60/min/IP &#160;&#160;· &#160;&#160;MIT</text>
</g>
</g>
</svg>
